STARTFONT 2.1
FONT -FontForge-Open 24 Display St-Book-R-Normal--19-180-75-75-P-82-ISO10646-1
SIZE 18 75 75
FONTBOUNDINGBOX 21 22 -3 -2
COMMENT "Generated by fontforge, http://fontforge.sourceforge.net"
COMMENT "Open 24 Display st | this font is an original design of southype | free for personal use."
STARTPROPERTIES 39
FOUNDRY "FontForge"
FAMILY_NAME "Open 24 Display St"
WEIGHT_NAME "Book"
SLANT "R"
SETWIDTH_NAME "Normal"
ADD_STYLE_NAME ""
PIXEL_SIZE 19
POINT_SIZE 180
RESOLUTION_X 75
RESOLUTION_Y 75
SPACING "P"
AVERAGE_WIDTH 82
CHARSET_REGISTRY "ISO10646"
CHARSET_ENCODING "1"
FONTNAME_REGISTRY ""
CHARSET_COLLECTIONS "Symbol ISO10646-1"
FONT_NAME "Open24DisplaySt"
FACE_NAME "Open 24 Display St"
COPYRIGHT "Open 24 Display st | this font is an original design of southype | free for personal use."
FONT_VERSION "1.00 June 6, 2014, initial release"
FONT_ASCENT 15
FONT_DESCENT 4
UNDERLINE_POSITION -3
UNDERLINE_THICKNESS 2
X_HEIGHT 12
CAP_HEIGHT 12
RAW_ASCENT 799
RAW_DESCENT 200
NORM_SPACE 8
RELATIVE_WEIGHT 40
RELATIVE_SETWIDTH 50
SUPERSCRIPT_X 0
SUPERSCRIPT_Y 9
SUPERSCRIPT_SIZE 12
SUBSCRIPT_X 0
SUBSCRIPT_Y 2
SUBSCRIPT_SIZE 12
AVG_LOWERCASE_WIDTH 80
AVG_UPPERCASE_WIDTH 82
ENDPROPERTIES
CHARS 243
STARTCHAR space
ENCODING 32
SWIDTH 441 0
DWIDTH 8 0
BBX 1 1 0 0
BITMAP
00
ENDCHAR
STARTCHAR exclam
ENCODING 33
SWIDTH 151 0
DWIDTH 3 0
BBX 2 13 0 0
BITMAP
80
C0
C0
C0
80
40
C0
C0
C0
40
00
40
40
ENDCHAR
STARTCHAR quotedbl
ENCODING 34
SWIDTH 198 0
DWIDTH 4 0
BBX 3 2 0 17
BITMAP
A0
A0
ENDCHAR
STARTCHAR numbersign
ENCODING 35
SWIDTH 1027 0
DWIDTH 20 0
BBX 18 13 0 0
BITMAP
00C300
008300
018600
010600
1B71C0
030C00
061800
041800
FDF700
0C3000
186000
106000
104000
ENDCHAR
STARTCHAR dollar
ENCODING 36
SWIDTH 442 0
DWIDTH 8 0
BBX 7 17 0 -2
BITMAP
10
00
FC
80
90
90
90
80
7E
02
12
12
12
02
7E
10
10
ENDCHAR
STARTCHAR percent
ENCODING 37
SWIDTH 442 0
DWIDTH 8 0
BBX 7 13 0 0
BITMAP
82
A6
44
0C
00
18
10
30
20
60
46
C4
86
ENDCHAR
STARTCHAR ampersand
ENCODING 38
SWIDTH 618 0
DWIDTH 12 0
BBX 10 13 0 0
BITMAP
3C00
4400
6400
4400
3800
7C00
FE00
8200
83C0
8200
82C0
83C0
7C00
ENDCHAR
STARTCHAR quotesingle
ENCODING 39
SWIDTH 100 0
DWIDTH 2 0
BBX 1 2 0 17
BITMAP
80
80
ENDCHAR
STARTCHAR parenleft
ENCODING 40
SWIDTH 292 0
DWIDTH 6 0
BBX 4 13 0 0
BITMAP
70
80
C0
C0
C0
C0
80
80
80
80
80
B0
70
ENDCHAR
STARTCHAR parenright
ENCODING 41
SWIDTH 294 0
DWIDTH 6 0
BBX 4 13 0 0
BITMAP
E0
10
10
10
10
10
10
00
10
10
10
70
E0
ENDCHAR
STARTCHAR asterisk
ENCODING 42
SWIDTH 361 0
DWIDTH 7 0
BBX 6 5 0 6
BITMAP
58
18
DC
58
50
ENDCHAR
STARTCHAR plus
ENCODING 43
SWIDTH 393 0
DWIDTH 7 0
BBX 6 8 0 2
BITMAP
10
10
10
FC
00
10
10
10
ENDCHAR
STARTCHAR comma
ENCODING 44
SWIDTH 149 0
DWIDTH 3 0
BBX 2 3 0 -2
BITMAP
C0
80
80
ENDCHAR
STARTCHAR hyphen
ENCODING 45
SWIDTH 327 0
DWIDTH 6 0
BBX 6 1 0 8
BITMAP
FC
ENDCHAR
STARTCHAR period
ENCODING 46
SWIDTH 144 0
DWIDTH 3 0
BBX 2 1 0 0
BITMAP
C0
ENDCHAR
STARTCHAR slash
ENCODING 47
SWIDTH 440 0
DWIDTH 8 0
BBX 7 13 0 0
BITMAP
02
06
0C
0C
00
18
10
30
60
60
40
C0
80
ENDCHAR
STARTCHAR zero
ENCODING 48
SWIDTH 441 0
DWIDTH 8 0
BBX 7 13 0 0
BITMAP
FC
82
82
8A
8A
9A
18
92
B2
82
82
82
7E
ENDCHAR
STARTCHAR one
ENCODING 49
SWIDTH 296 0
DWIDTH 6 0
BBX 5 13 0 0
BITMAP
10
38
78
D8
18
10
00
18
18
18
18
18
08
ENDCHAR
STARTCHAR two
ENCODING 50
SWIDTH 441 0
DWIDTH 8 0
BBX 7 13 0 0
BITMAP
7C
02
02
02
02
02
7E
80
80
80
80
80
7E
ENDCHAR
STARTCHAR three
ENCODING 51
SWIDTH 441 0
DWIDTH 8 0
BBX 7 13 0 0
BITMAP
FE
06
06
06
06
02
FC
06
06
06
06
06
FC
ENDCHAR
STARTCHAR four
ENCODING 52
SWIDTH 441 0
DWIDTH 8 0
BBX 7 12 0 1
BITMAP
82
82
82
82
82
82
7E
00
02
02
02
02
ENDCHAR
STARTCHAR five
ENCODING 53
SWIDTH 441 0
DWIDTH 8 0
BBX 7 13 0 0
BITMAP
FC
80
80
80
80
80
7C
02
02
02
02
02
7E
ENDCHAR
STARTCHAR six
ENCODING 54
SWIDTH 441 0
DWIDTH 8 0
BBX 7 13 0 0
BITMAP
FC
80
80
80
80
80
7C
82
82
82
82
82
7E
ENDCHAR
STARTCHAR seven
ENCODING 55
SWIDTH 441 0
DWIDTH 8 0
BBX 7 13 0 0
BITMAP
FE
06
06
06
06
02
00
06
06
06
06
06
02
ENDCHAR
STARTCHAR eight
ENCODING 56
SWIDTH 441 0
DWIDTH 8 0
BBX 7 13 0 0
BITMAP
FC
82
82
82
82
82
7C
82
82
82
82
82
7E
ENDCHAR
STARTCHAR nine
ENCODING 57
SWIDTH 441 0
DWIDTH 8 0
BBX 7 13 0 0
BITMAP
FC
82
82
82
82
82
7E
02
02
02
02
02
7E
ENDCHAR
STARTCHAR colon
ENCODING 58
SWIDTH 144 0
DWIDTH 3 0
BBX 2 11 0 0
BITMAP
C0
00
00
00
00
00
00
00
00
00
C0
ENDCHAR
STARTCHAR semicolon
ENCODING 59
SWIDTH 271 0
DWIDTH 5 0
BBX 2 13 0 -2
BITMAP
C0
00
00
00
00
00
00
00
00
00
C0
80
80
ENDCHAR
STARTCHAR less
ENCODING 60
SWIDTH 338 0
DWIDTH 6 0
BBX 5 7 0 3
BITMAP
18
38
E0
00
E0
70
18
ENDCHAR
STARTCHAR equal
ENCODING 61
SWIDTH 345 0
DWIDTH 7 0
BBX 6 5 0 4
BITMAP
FC
00
00
78
FC
ENDCHAR
STARTCHAR greater
ENCODING 62
SWIDTH 340 0
DWIDTH 6 0
BBX 5 8 0 2
BITMAP
C0
70
38
00
18
70
C0
80
ENDCHAR
STARTCHAR question
ENCODING 63
SWIDTH 441 0
DWIDTH 8 0
BBX 7 13 0 0
BITMAP
FE
06
06
06
06
02
FC
00
80
C0
80
00
80
ENDCHAR
STARTCHAR at
ENCODING 64
SWIDTH 440 0
DWIDTH 8 0
BBX 7 13 0 0
BITMAP
FC
82
82
82
8A
8A
18
AA
B2
82
82
82
7E
ENDCHAR
STARTCHAR A
ENCODING 65
SWIDTH 441 0
DWIDTH 8 0
BBX 7 13 0 0
BITMAP
FC
82
82
82
82
82
7C
82
82
82
82
82
80
ENDCHAR
STARTCHAR B
ENCODING 66
SWIDTH 441 0
DWIDTH 8 0
BBX 7 13 0 0
BITMAP
FC
82
82
82
82
82
7C
82
82
82
82
82
7E
ENDCHAR
STARTCHAR C
ENCODING 67
SWIDTH 441 0
DWIDTH 8 0
BBX 7 13 0 0
BITMAP
FC
80
80
80
80
80
00
80
80
80
80
80
7E
ENDCHAR
STARTCHAR D
ENCODING 68
SWIDTH 441 0
DWIDTH 8 0
BBX 7 13 0 0
BITMAP
FC
82
82
82
82
82
00
82
82
82
82
82
7E
ENDCHAR
STARTCHAR E
ENCODING 69
SWIDTH 441 0
DWIDTH 8 0
BBX 7 13 0 0
BITMAP
FC
80
80
80
80
80
7C
80
80
80
80
80
7E
ENDCHAR
STARTCHAR F
ENCODING 70
SWIDTH 441 0
DWIDTH 8 0
BBX 6 13 0 0
BITMAP
FC
80
80
80
80
80
7C
80
80
80
80
80
80
ENDCHAR
STARTCHAR G
ENCODING 71
SWIDTH 441 0
DWIDTH 8 0
BBX 7 13 0 0
BITMAP
FC
80
80
80
80
80
1C
82
82
82
82
82
7E
ENDCHAR
STARTCHAR H
ENCODING 72
SWIDTH 441 0
DWIDTH 8 0
BBX 7 13 0 0
BITMAP
82
82
82
82
82
82
7C
82
82
82
82
82
80
ENDCHAR
STARTCHAR I
ENCODING 73
SWIDTH 136 0
DWIDTH 3 0
BBX 1 12 0 1
BITMAP
80
80
80
80
80
80
00
80
80
80
80
80
ENDCHAR
STARTCHAR J
ENCODING 74
SWIDTH 441 0
DWIDTH 8 0
BBX 7 13 0 0
BITMAP
02
02
02
02
02
02
00
82
82
82
82
82
7E
ENDCHAR
STARTCHAR K
ENCODING 75
SWIDTH 441 0
DWIDTH 8 0
BBX 7 13 0 0
BITMAP
80
82
86
8C
98
80
7C
82
82
82
82
82
80
ENDCHAR
STARTCHAR L
ENCODING 76
SWIDTH 441 0
DWIDTH 8 0
BBX 7 13 0 0
BITMAP
80
80
80
80
80
80
00
80
80
80
80
80
7E
ENDCHAR
STARTCHAR M
ENCODING 77
SWIDTH 798 0
DWIDTH 15 0
BBX 14 13 0 0
BITMAP
FCFC
8204
8204
8204
8204
8204
0000
8204
8204
8204
8204
8204
0004
ENDCHAR
STARTCHAR N
ENCODING 78
SWIDTH 441 0
DWIDTH 8 0
BBX 7 13 0 0
BITMAP
82
A2
B2
BA
9E
8E
00
82
82
82
82
82
80
ENDCHAR
STARTCHAR O
ENCODING 79
SWIDTH 441 0
DWIDTH 8 0
BBX 7 13 0 0
BITMAP
FC
82
82
82
82
82
00
82
82
82
82
82
7E
ENDCHAR
STARTCHAR P
ENCODING 80
SWIDTH 441 0
DWIDTH 8 0
BBX 7 13 0 0
BITMAP
FC
82
82
82
82
82
7C
80
80
80
80
80
80
ENDCHAR
STARTCHAR Q
ENCODING 81
SWIDTH 441 0
DWIDTH 8 0
BBX 7 15 0 -2
BITMAP
FC
82
82
82
82
82
00
82
82
82
92
82
7E
10
10
ENDCHAR
STARTCHAR R
ENCODING 82
SWIDTH 441 0
DWIDTH 8 0
BBX 7 13 0 0
BITMAP
FC
82
82
82
82
82
7C
88
8C
84
86
82
82
ENDCHAR
STARTCHAR S
ENCODING 83
SWIDTH 441 0
DWIDTH 8 0
BBX 7 13 0 0
BITMAP
FC
80
80
80
80
80
7C
02
02
02
02
02
7E
ENDCHAR
STARTCHAR T
ENCODING 84
SWIDTH 441 0
DWIDTH 8 0
BBX 7 13 0 0
BITMAP
FE
00
10
18
18
18
10
00
08
18
18
18
08
ENDCHAR
STARTCHAR U
ENCODING 85
SWIDTH 441 0
DWIDTH 8 0
BBX 7 13 0 0
BITMAP
82
82
82
82
82
82
00
82
82
82
82
82
7E
ENDCHAR
STARTCHAR V
ENCODING 86
SWIDTH 441 0
DWIDTH 8 0
BBX 7 13 0 0
BITMAP
82
82
82
82
82
82
82
00
C2
46
6C
3C
08
ENDCHAR
STARTCHAR W
ENCODING 87
SWIDTH 751 0
DWIDTH 14 0
BBX 13 13 0 0
BITMAP
8208
8208
8208
8208
8208
8208
8208
0000
C208
4718
6DB0
3CE0
0820
ENDCHAR
STARTCHAR X
ENCODING 88
SWIDTH 441 0
DWIDTH 8 0
BBX 7 13 0 0
BITMAP
C2
46
6C
38
08
00
7C
00
28
3C
6C
46
C2
ENDCHAR
STARTCHAR Y
ENCODING 89
SWIDTH 441 0
DWIDTH 8 0
BBX 7 13 0 0
BITMAP
82
82
82
00
C2
46
6C
3C
08
00
10
10
10
ENDCHAR
STARTCHAR Z
ENCODING 90
SWIDTH 439 0
DWIDTH 8 0
BBX 7 13 0 0
BITMAP
FC
02
06
0C
0C
08
00
30
20
60
40
40
7E
ENDCHAR
STARTCHAR bracketleft
ENCODING 91
SWIDTH 292 0
DWIDTH 6 0
BBX 4 13 0 0
BITMAP
70
80
C0
C0
C0
C0
80
80
80
80
80
B0
70
ENDCHAR
STARTCHAR backslash
ENCODING 92
SWIDTH 440 0
DWIDTH 8 0
BBX 7 13 0 0
BITMAP
C0
40
60
20
30
10
18
08
0C
04
06
02
02
ENDCHAR
STARTCHAR bracketright
ENCODING 93
SWIDTH 294 0
DWIDTH 6 0
BBX 4 13 0 0
BITMAP
E0
10
10
10
10
10
10
00
10
10
10
70
E0
ENDCHAR
STARTCHAR asciicircum
ENCODING 94
SWIDTH 512 0
DWIDTH 10 0
BBX 7 5 1 10
BITMAP
20
28
6C
C6
C6
ENDCHAR
STARTCHAR underscore
ENCODING 95
SWIDTH 315 0
DWIDTH 6 0
BBX 6 2 0 0
BITMAP
78
FC
ENDCHAR
STARTCHAR grave
ENCODING 96
SWIDTH 500 0
DWIDTH 10 0
BBX 2 3 4 11
BITMAP
C0
40
40
ENDCHAR
STARTCHAR a
ENCODING 97
SWIDTH 441 0
DWIDTH 8 0
BBX 7 13 0 0
BITMAP
FC
82
82
82
82
82
7C
82
82
82
82
82
80
ENDCHAR
STARTCHAR b
ENCODING 98
SWIDTH 441 0
DWIDTH 8 0
BBX 7 13 0 0
BITMAP
FC
82
82
82
82
82
7C
82
82
82
82
82
7E
ENDCHAR
STARTCHAR c
ENCODING 99
SWIDTH 441 0
DWIDTH 8 0
BBX 7 13 0 0
BITMAP
FC
80
80
80
80
80
00
80
80
80
80
80
7E
ENDCHAR
STARTCHAR d
ENCODING 100
SWIDTH 441 0
DWIDTH 8 0
BBX 7 13 0 0
BITMAP
FC
82
82
82
82
82
00
82
82
82
82
82
7E
ENDCHAR
STARTCHAR e
ENCODING 101
SWIDTH 441 0
DWIDTH 8 0
BBX 7 13 0 0
BITMAP
FC
80
80
80
80
80
7C
80
80
80
80
80
7E
ENDCHAR
STARTCHAR f
ENCODING 102
SWIDTH 441 0
DWIDTH 8 0
BBX 6 13 0 0
BITMAP
FC
80
80
80
80
80
7C
80
80
80
80
80
80
ENDCHAR
STARTCHAR g
ENCODING 103
SWIDTH 441 0
DWIDTH 8 0
BBX 7 13 0 0
BITMAP
FC
80
80
80
80
80
1C
82
82
82
82
82
7E
ENDCHAR
STARTCHAR h
ENCODING 104
SWIDTH 441 0
DWIDTH 8 0
BBX 7 13 0 0
BITMAP
82
82
82
82
82
82
7C
82
82
82
82
82
80
ENDCHAR
STARTCHAR i
ENCODING 105
SWIDTH 136 0
DWIDTH 3 0
BBX 1 12 0 1
BITMAP
80
80
80
80
80
80
00
80
80
80
80
80
ENDCHAR
STARTCHAR j
ENCODING 106
SWIDTH 441 0
DWIDTH 8 0
BBX 7 13 0 0
BITMAP
02
02
02
02
02
02
00
82
82
82
82
82
7E
ENDCHAR
STARTCHAR k
ENCODING 107
SWIDTH 441 0
DWIDTH 8 0
BBX 7 13 0 0
BITMAP
80
82
86
8C
98
80
7C
82
82
82
82
82
80
ENDCHAR
STARTCHAR l
ENCODING 108
SWIDTH 441 0
DWIDTH 8 0
BBX 7 13 0 0
BITMAP
80
80
80
80
80
80
00
80
80
80
80
80
7E
ENDCHAR
STARTCHAR m
ENCODING 109
SWIDTH 798 0
DWIDTH 15 0
BBX 14 13 0 0
BITMAP
FCFC
8204
8204
8204
8204
8204
0000
8204
8204
8204
8204
8204
0004
ENDCHAR
STARTCHAR n
ENCODING 110
SWIDTH 441 0
DWIDTH 8 0
BBX 7 13 0 0
BITMAP
82
A2
B2
BA
9E
8E
00
82
82
82
82
82
80
ENDCHAR
STARTCHAR o
ENCODING 111
SWIDTH 441 0
DWIDTH 8 0
BBX 7 13 0 0
BITMAP
FC
82
82
82
82
82
00
82
82
82
82
82
7E
ENDCHAR
STARTCHAR p
ENCODING 112
SWIDTH 441 0
DWIDTH 8 0
BBX 7 13 0 0
BITMAP
FC
82
82
82
82
82
7C
80
80
80
80
80
80
ENDCHAR
STARTCHAR q
ENCODING 113
SWIDTH 441 0
DWIDTH 8 0
BBX 7 15 0 -2
BITMAP
FC
82
82
82
82
82
00
82
82
82
92
82
7E
10
10
ENDCHAR
STARTCHAR r
ENCODING 114
SWIDTH 441 0
DWIDTH 8 0
BBX 7 13 0 0
BITMAP
FC
82
82
82
82
82
7C
88
8C
84
86
82
82
ENDCHAR
STARTCHAR s
ENCODING 115
SWIDTH 441 0
DWIDTH 8 0
BBX 7 13 0 0
BITMAP
FC
80
80
80
80
80
7C
02
02
02
02
02
7E
ENDCHAR
STARTCHAR t
ENCODING 116
SWIDTH 441 0
DWIDTH 8 0
BBX 7 13 0 0
BITMAP
FE
00
10
18
18
18
10
00
08
18
18
18
08
ENDCHAR
STARTCHAR u
ENCODING 117
SWIDTH 441 0
DWIDTH 8 0
BBX 7 13 0 0
BITMAP
82
82
82
82
82
82
00
82
82
82
82
82
7E
ENDCHAR
STARTCHAR v
ENCODING 118
SWIDTH 441 0
DWIDTH 8 0
BBX 7 13 0 0
BITMAP
82
82
82
82
82
82
82
00
C2
46
6C
3C
08
ENDCHAR
STARTCHAR w
ENCODING 119
SWIDTH 751 0
DWIDTH 14 0
BBX 13 13 0 0
BITMAP
8208
8208
8208
8208
8208
8208
8208
0000
C208
4718
6DB0
3CE0
0820
ENDCHAR
STARTCHAR x
ENCODING 120
SWIDTH 441 0
DWIDTH 8 0
BBX 7 13 0 0
BITMAP
C2
46
6C
38
08
00
7C
00
28
3C
6C
46
C2
ENDCHAR
STARTCHAR y
ENCODING 121
SWIDTH 441 0
DWIDTH 8 0
BBX 7 13 0 0
BITMAP
82
82
82
00
C2
46
6C
3C
08
00
10
10
10
ENDCHAR
STARTCHAR z
ENCODING 122
SWIDTH 439 0
DWIDTH 8 0
BBX 7 13 0 0
BITMAP
FC
02
06
0C
0C
08
00
30
20
60
40
40
7E
ENDCHAR
STARTCHAR braceleft
ENCODING 123
SWIDTH 293 0
DWIDTH 6 0
BBX 4 13 0 0
BITMAP
10
10
10
10
10
10
F0
10
10
10
10
10
10
ENDCHAR
STARTCHAR bar
ENCODING 124
SWIDTH 144 0
DWIDTH 3 0
BBX 1 18 0 -2
BITMAP
80
80
80
80
80
00
80
80
80
80
80
00
00
80
80
80
80
80
ENDCHAR
STARTCHAR braceright
ENCODING 125
SWIDTH 293 0
DWIDTH 6 0
BBX 4 13 0 0
BITMAP
80
80
80
80
80
80
70
80
80
80
80
80
80
ENDCHAR
STARTCHAR asciitilde
ENCODING 126
SWIDTH 489 0
DWIDTH 9 0
BBX 6 3 1 9
BITMAP
64
9C
08
ENDCHAR
STARTCHAR space.dup1
ENCODING 160
SWIDTH 441 0
DWIDTH 8 0
BBX 1 1 0 0
BITMAP
00
ENDCHAR
STARTCHAR exclamdown
ENCODING 161
SWIDTH 151 0
DWIDTH 3 0
BBX 2 13 0 -2
BITMAP
40
40
00
40
C0
C0
C0
40
80
C0
C0
C0
80
ENDCHAR
STARTCHAR cent
ENCODING 162
SWIDTH 556 0
DWIDTH 11 0
BBX 1 1 0 0
BITMAP
00
ENDCHAR
STARTCHAR sterling
ENCODING 163
SWIDTH 495 0
DWIDTH 9 0
BBX 1 1 0 0
BITMAP
00
ENDCHAR
STARTCHAR currency
ENCODING 164
SWIDTH 495 0
DWIDTH 9 0
BBX 1 1 0 0
BITMAP
00
ENDCHAR
STARTCHAR yen
ENCODING 165
SWIDTH 441 0
DWIDTH 8 0
BBX 1 1 0 0
BITMAP
00
ENDCHAR
STARTCHAR brokenbar
ENCODING 166
SWIDTH 495 0
DWIDTH 9 0
BBX 1 1 0 0
BITMAP
00
ENDCHAR
STARTCHAR section
ENCODING 167
SWIDTH 495 0
DWIDTH 9 0
BBX 1 1 0 0
BITMAP
00
ENDCHAR
STARTCHAR dieresis
ENCODING 168
SWIDTH 500 0
DWIDTH 10 0
BBX 6 2 2 11
BITMAP
84
84
ENDCHAR
STARTCHAR copyright
ENCODING 169
SWIDTH 817 0
DWIDTH 16 0
BBX 1 1 0 0
BITMAP
00
ENDCHAR
STARTCHAR ordfeminine
ENCODING 170
SWIDTH 316 0
DWIDTH 6 0
BBX 1 1 0 0
BITMAP
00
ENDCHAR
STARTCHAR guillemotleft
ENCODING 171
SWIDTH 460 0
DWIDTH 9 0
BBX 1 1 0 0
BITMAP
00
ENDCHAR
STARTCHAR logicalnot
ENCODING 172
SWIDTH 495 0
DWIDTH 9 0
BBX 1 1 0 0
BITMAP
00
ENDCHAR
STARTCHAR hyphen.dup2
ENCODING 173
SWIDTH 327 0
DWIDTH 6 0
BBX 6 1 0 8
BITMAP
FC
ENDCHAR
STARTCHAR registered
ENCODING 174
SWIDTH 817 0
DWIDTH 16 0
BBX 1 1 0 0
BITMAP
00
ENDCHAR
STARTCHAR macron
ENCODING 175
SWIDTH 327 0
DWIDTH 6 0
BBX 1 1 0 0
BITMAP
00
ENDCHAR
STARTCHAR degree
ENCODING 176
SWIDTH 329 0
DWIDTH 6 0
BBX 2 3 2 10
BITMAP
40
00
C0
ENDCHAR
STARTCHAR plusminus
ENCODING 177
SWIDTH 393 0
DWIDTH 7 0
BBX 6 10 0 0
BITMAP
10
10
10
FC
00
10
10
10
78
FC
ENDCHAR
STARTCHAR uni00B2
ENCODING 178
SWIDTH 495 0
DWIDTH 9 0
BBX 1 1 0 0
BITMAP
00
ENDCHAR
STARTCHAR uni00B3
ENCODING 179
SWIDTH 495 0
DWIDTH 9 0
BBX 1 1 0 0
BITMAP
00
ENDCHAR
STARTCHAR acute
ENCODING 180
SWIDTH 500 0
DWIDTH 10 0
BBX 2 3 3 11
BITMAP
40
C0
80
ENDCHAR
STARTCHAR mu
ENCODING 181
SWIDTH 576 0
DWIDTH 11 0
BBX 1 1 0 0
BITMAP
00
ENDCHAR
STARTCHAR paragraph
ENCODING 182
SWIDTH 500 0
DWIDTH 10 0
BBX 1 1 0 0
BITMAP
00
ENDCHAR
STARTCHAR periodcentered
ENCODING 183
SWIDTH 248 0
DWIDTH 5 0
BBX 1 1 0 0
BITMAP
00
ENDCHAR
STARTCHAR cedilla
ENCODING 184
SWIDTH 500 0
DWIDTH 10 0
BBX 1 1 0 0
BITMAP
00
ENDCHAR
STARTCHAR uni00B9
ENCODING 185
SWIDTH 495 0
DWIDTH 9 0
BBX 1 1 0 0
BITMAP
00
ENDCHAR
STARTCHAR ordmasculine
ENCODING 186
SWIDTH 350 0
DWIDTH 7 0
BBX 1 1 0 0
BITMAP
00
ENDCHAR
STARTCHAR guillemotright
ENCODING 187
SWIDTH 460 0
DWIDTH 9 0
BBX 1 1 0 0
BITMAP
00
ENDCHAR
STARTCHAR onequarter
ENCODING 188
SWIDTH 833 0
DWIDTH 16 0
BBX 1 1 0 0
BITMAP
00
ENDCHAR
STARTCHAR onehalf
ENCODING 189
SWIDTH 958 0
DWIDTH 18 0
BBX 1 1 0 0
BITMAP
00
ENDCHAR
STARTCHAR threequarters
ENCODING 190
SWIDTH 833 0
DWIDTH 16 0
BBX 1 1 0 0
BITMAP
00
ENDCHAR
STARTCHAR questiondown
ENCODING 191
SWIDTH 391 0
DWIDTH 7 0
BBX 7 13 0 0
BITMAP
06
00
06
06
02
00
7E
80
80
80
80
80
7E
ENDCHAR
STARTCHAR Agrave
ENCODING 192
SWIDTH 441 0
DWIDTH 8 0
BBX 7 18 0 0
BITMAP
30
10
10
00
00
FC
82
82
82
82
82
7C
82
82
82
82
82
80
ENDCHAR
STARTCHAR Aacute
ENCODING 193
SWIDTH 441 0
DWIDTH 8 0
BBX 7 18 0 0
BITMAP
08
18
10
00
00
FC
82
82
82
82
82
7C
82
82
82
82
82
80
ENDCHAR
STARTCHAR Acircumflex
ENCODING 194
SWIDTH 441 0
DWIDTH 8 0
BBX 7 18 0 0
BITMAP
38
6C
64
00
00
FC
82
82
82
82
82
7C
82
82
82
82
82
80
ENDCHAR
STARTCHAR Atilde
ENCODING 195
SWIDTH 441 0
DWIDTH 8 0
BBX 8 18 0 0
BITMAP
53
DE
8C
00
00
FC
82
82
82
82
82
7C
82
82
82
82
82
80
ENDCHAR
STARTCHAR Adieresis
ENCODING 196
SWIDTH 441 0
DWIDTH 8 0
BBX 8 17 0 0
BITMAP
40
43
00
00
FC
82
82
82
82
82
7C
82
82
82
82
82
80
ENDCHAR
STARTCHAR Aring
ENCODING 197
SWIDTH 441 0
DWIDTH 8 0
BBX 7 16 0 0
BITMAP
10
00
00
FC
82
82
82
82
82
7C
82
82
82
82
82
80
ENDCHAR
STARTCHAR AE
ENCODING 198
SWIDTH 785 0
DWIDTH 15 0
BBX 13 13 0 0
BITMAP
FCF8
8200
8200
8200
8200
8200
7CF8
8200
8200
8200
8200
8200
80F8
ENDCHAR
STARTCHAR Ccedilla
ENCODING 199
SWIDTH 683 0
DWIDTH 13 0
BBX 1 1 0 0
BITMAP
00
ENDCHAR
STARTCHAR Egrave
ENCODING 200
SWIDTH 441 0
DWIDTH 8 0
BBX 7 18 0 0
BITMAP
20
30
10
00
00
FC
80
80
80
80
80
7C
80
80
80
80
80
7E
ENDCHAR
STARTCHAR Eacute
ENCODING 201
SWIDTH 441 0
DWIDTH 8 0
BBX 7 18 0 0
BITMAP
18
18
10
00
00
FC
80
80
80
80
80
7C
80
80
80
80
80
7E
ENDCHAR
STARTCHAR Ecircumflex
ENCODING 202
SWIDTH 441 0
DWIDTH 8 0
BBX 7 18 0 0
BITMAP
38
6C
4C
00
00
FC
80
80
80
80
80
7C
80
80
80
80
80
7E
ENDCHAR
STARTCHAR Edieresis
ENCODING 203
SWIDTH 441 0
DWIDTH 8 0
BBX 7 16 0 0
BITMAP
C6
00
00
7C
80
80
80
80
80
7C
80
80
80
80
80
7C
ENDCHAR
STARTCHAR Igrave
ENCODING 204
SWIDTH 136 0
DWIDTH 3 0
BBX 2 17 -1 1
BITMAP
C0
40
40
00
00
40
40
40
40
40
40
00
40
40
40
40
40
ENDCHAR
STARTCHAR Iacute
ENCODING 205
SWIDTH 136 0
DWIDTH 3 0
BBX 2 17 0 1
BITMAP
40
C0
80
00
00
80
80
80
80
80
80
00
80
80
80
80
80
ENDCHAR
STARTCHAR Icircumflex
ENCODING 206
SWIDTH 136 0
DWIDTH 3 0
BBX 5 17 -2 1
BITMAP
70
D8
C8
00
00
20
20
20
20
20
20
00
20
20
20
20
20
ENDCHAR
STARTCHAR Idieresis
ENCODING 207
SWIDTH 136 0
DWIDTH 3 0
BBX 7 17 -3 0
BITMAP
02
C2
00
00
10
10
10
10
10
10
00
10
10
10
10
10
10
ENDCHAR
STARTCHAR Eth
ENCODING 208
SWIDTH 741 0
DWIDTH 14 0
BBX 1 1 0 0
BITMAP
00
ENDCHAR
STARTCHAR Ntilde
ENCODING 209
SWIDTH 441 0
DWIDTH 8 0
BBX 8 18 0 0
BITMAP
53
DE
8C
00
00
82
A2
B2
BA
9E
8E
00
82
82
82
82
82
80
ENDCHAR
STARTCHAR Ograve
ENCODING 210
SWIDTH 441 0
DWIDTH 8 0
BBX 7 18 0 0
BITMAP
30
10
10
00
00
FC
82
82
82
82
82
00
82
82
82
82
82
7E
ENDCHAR
STARTCHAR Oacute
ENCODING 211
SWIDTH 441 0
DWIDTH 8 0
BBX 7 18 0 0
BITMAP
08
18
10
00
00
FC
82
82
82
82
82
00
82
82
82
82
82
7E
ENDCHAR
STARTCHAR Ocircumflex
ENCODING 212
SWIDTH 441 0
DWIDTH 8 0
BBX 7 18 0 0
BITMAP
38
6C
64
00
00
FC
82
82
82
82
82
00
82
82
82
82
82
7E
ENDCHAR
STARTCHAR Otilde
ENCODING 213
SWIDTH 441 0
DWIDTH 8 0
BBX 8 18 0 0
BITMAP
53
DE
8C
00
00
FC
82
82
82
82
82
00
82
82
82
82
82
7E
ENDCHAR
STARTCHAR Odieresis
ENCODING 214
SWIDTH 441 0
DWIDTH 8 0
BBX 8 17 0 0
BITMAP
40
43
00
00
FC
82
82
82
82
82
00
82
82
82
82
82
7E
ENDCHAR
STARTCHAR multiply
ENCODING 215
SWIDTH 495 0
DWIDTH 9 0
BBX 1 1 0 0
BITMAP
00
ENDCHAR
STARTCHAR Oslash
ENCODING 216
SWIDTH 788 0
DWIDTH 15 0
BBX 1 1 0 0
BITMAP
00
ENDCHAR
STARTCHAR Ugrave
ENCODING 217
SWIDTH 441 0
DWIDTH 8 0
BBX 7 18 0 0
BITMAP
30
10
10
00
00
82
82
82
82
82
82
00
82
82
82
82
82
7E
ENDCHAR
STARTCHAR Uacute
ENCODING 218
SWIDTH 441 0
DWIDTH 8 0
BBX 7 18 0 0
BITMAP
08
18
10
00
00
82
82
82
82
82
82
00
82
82
82
82
82
7E
ENDCHAR
STARTCHAR Ucircumflex
ENCODING 219
SWIDTH 441 0
DWIDTH 8 0
BBX 7 18 0 0
BITMAP
38
6C
64
00
00
82
82
82
82
82
82
00
82
82
82
82
82
7E
ENDCHAR
STARTCHAR Udieresis
ENCODING 220
SWIDTH 441 0
DWIDTH 8 0
BBX 8 17 0 0
BITMAP
40
43
00
00
82
82
82
82
82
82
00
82
82
82
82
82
7E
ENDCHAR
STARTCHAR Yacute
ENCODING 221
SWIDTH 441 0
DWIDTH 8 0
BBX 1 1 0 0
BITMAP
00
ENDCHAR
STARTCHAR Thorn
ENCODING 222
SWIDTH 546 0
DWIDTH 10 0
BBX 1 1 0 0
BITMAP
00
ENDCHAR
STARTCHAR germandbls
ENCODING 223
SWIDTH 610 0
DWIDTH 12 0
BBX 1 1 0 0
BITMAP
00
ENDCHAR
STARTCHAR agrave
ENCODING 224
SWIDTH 441 0
DWIDTH 8 0
BBX 7 18 0 0
BITMAP
30
10
10
00
00
FC
82
82
82
82
82
7C
82
82
82
82
82
80
ENDCHAR
STARTCHAR aacute
ENCODING 225
SWIDTH 441 0
DWIDTH 8 0
BBX 7 18 0 0
BITMAP
08
18
10
00
00
FC
82
82
82
82
82
7C
82
82
82
82
82
80
ENDCHAR
STARTCHAR acircumflex
ENCODING 226
SWIDTH 441 0
DWIDTH 8 0
BBX 7 18 0 0
BITMAP
38
6C
64
00
00
FC
82
82
82
82
82
7C
82
82
82
82
82
80
ENDCHAR
STARTCHAR atilde
ENCODING 227
SWIDTH 441 0
DWIDTH 8 0
BBX 8 18 0 0
BITMAP
53
DE
8C
00
00
FC
82
82
82
82
82
7C
82
82
82
82
82
80
ENDCHAR
STARTCHAR adieresis
ENCODING 228
SWIDTH 441 0
DWIDTH 8 0
BBX 8 17 0 0
BITMAP
40
43
00
00
FC
82
82
82
82
82
7C
82
82
82
82
82
80
ENDCHAR
STARTCHAR aring
ENCODING 229
SWIDTH 441 0
DWIDTH 8 0
BBX 7 16 0 0
BITMAP
10
00
00
FC
82
82
82
82
82
7C
82
82
82
82
82
80
ENDCHAR
STARTCHAR ae
ENCODING 230
SWIDTH 781 0
DWIDTH 15 0
BBX 13 13 0 0
BITMAP
FCF8
8200
8200
8200
8200
8200
7CF8
8200
8200
8200
8200
8200
80F8
ENDCHAR
STARTCHAR ccedilla
ENCODING 231
SWIDTH 441 0
DWIDTH 8 0
BBX 1 1 0 0
BITMAP
00
ENDCHAR
STARTCHAR egrave
ENCODING 232
SWIDTH 441 0
DWIDTH 8 0
BBX 7 18 0 0
BITMAP
20
30
10
00
00
FC
80
80
80
80
80
7C
80
80
80
80
80
7E
ENDCHAR
STARTCHAR eacute
ENCODING 233
SWIDTH 441 0
DWIDTH 8 0
BBX 7 18 0 0
BITMAP
18
18
10
00
00
FC
80
80
80
80
80
7C
80
80
80
80
80
7E
ENDCHAR
STARTCHAR ecircumflex
ENCODING 234
SWIDTH 441 0
DWIDTH 8 0
BBX 7 18 0 0
BITMAP
38
6C
4C
00
00
FC
80
80
80
80
80
7C
80
80
80
80
80
7E
ENDCHAR
STARTCHAR edieresis
ENCODING 235
SWIDTH 441 0
DWIDTH 8 0
BBX 7 16 0 0
BITMAP
C6
00
00
7C
80
80
80
80
80
7C
80
80
80
80
80
7C
ENDCHAR
STARTCHAR igrave
ENCODING 236
SWIDTH 136 0
DWIDTH 3 0
BBX 2 17 -1 1
BITMAP
C0
40
40
00
00
40
40
40
40
40
40
00
40
40
40
40
40
ENDCHAR
STARTCHAR iacute
ENCODING 237
SWIDTH 136 0
DWIDTH 3 0
BBX 2 17 0 1
BITMAP
40
C0
80
00
00
80
80
80
80
80
80
00
80
80
80
80
80
ENDCHAR
STARTCHAR icircumflex
ENCODING 238
SWIDTH 136 0
DWIDTH 3 0
BBX 5 17 -2 1
BITMAP
70
D8
C8
00
00
20
20
20
20
20
20
00
20
20
20
20
20
ENDCHAR
STARTCHAR idieresis
ENCODING 239
SWIDTH 136 0
DWIDTH 3 0
BBX 7 17 -3 0
BITMAP
02
C2
00
00
10
10
10
10
10
10
00
10
10
10
10
10
10
ENDCHAR
STARTCHAR eth
ENCODING 240
SWIDTH 556 0
DWIDTH 11 0
BBX 1 1 0 0
BITMAP
00
ENDCHAR
STARTCHAR ntilde
ENCODING 241
SWIDTH 441 0
DWIDTH 8 0
BBX 8 18 0 0
BITMAP
53
DE
8C
00
00
82
A2
B2
BA
9E
8E
00
82
82
82
82
82
80
ENDCHAR
STARTCHAR ograve
ENCODING 242
SWIDTH 441 0
DWIDTH 8 0
BBX 7 18 0 0
BITMAP
30
10
10
00
00
FC
82
82
82
82
82
00
82
82
82
82
82
7E
ENDCHAR
STARTCHAR oacute
ENCODING 243
SWIDTH 441 0
DWIDTH 8 0
BBX 7 18 0 0
BITMAP
08
18
10
00
00
FC
82
82
82
82
82
00
82
82
82
82
82
7E
ENDCHAR
STARTCHAR ocircumflex
ENCODING 244
SWIDTH 441 0
DWIDTH 8 0
BBX 7 18 0 0
BITMAP
38
6C
64
00
00
FC
82
82
82
82
82
00
82
82
82
82
82
7E
ENDCHAR
STARTCHAR otilde
ENCODING 245
SWIDTH 441 0
DWIDTH 8 0
BBX 8 18 0 0
BITMAP
53
DE
8C
00
00
FC
82
82
82
82
82
00
82
82
82
82
82
7E
ENDCHAR
STARTCHAR odieresis
ENCODING 246
SWIDTH 441 0
DWIDTH 8 0
BBX 8 17 0 0
BITMAP
40
43
00
00
FC
82
82
82
82
82
00
82
82
82
82
82
7E
ENDCHAR
STARTCHAR divide
ENCODING 247
SWIDTH 344 0
DWIDTH 6 0
BBX 6 10 0 3
BITMAP
30
00
00
00
FC
00
00
00
00
30
ENDCHAR
STARTCHAR oslash
ENCODING 248
SWIDTH 493 0
DWIDTH 9 0
BBX 1 1 0 0
BITMAP
00
ENDCHAR
STARTCHAR ugrave
ENCODING 249
SWIDTH 441 0
DWIDTH 8 0
BBX 7 18 0 0
BITMAP
30
10
10
00
00
82
82
82
82
82
82
00
82
82
82
82
82
7E
ENDCHAR
STARTCHAR uacute
ENCODING 250
SWIDTH 441 0
DWIDTH 8 0
BBX 7 18 0 0
BITMAP
08
18
10
00
00
82
82
82
82
82
82
00
82
82
82
82
82
7E
ENDCHAR
STARTCHAR ucircumflex
ENCODING 251
SWIDTH 441 0
DWIDTH 8 0
BBX 7 18 0 0
BITMAP
38
6C
64
00
00
82
82
82
82
82
82
00
82
82
82
82
82
7E
ENDCHAR
STARTCHAR udieresis
ENCODING 252
SWIDTH 441 0
DWIDTH 8 0
BBX 8 17 0 0
BITMAP
40
43
00
00
82
82
82
82
82
82
00
82
82
82
82
82
7E
ENDCHAR
STARTCHAR yacute
ENCODING 253
SWIDTH 423 0
DWIDTH 8 0
BBX 1 1 0 0
BITMAP
00
ENDCHAR
STARTCHAR thorn
ENCODING 254
SWIDTH 493 0
DWIDTH 9 0
BBX 1 1 0 0
BITMAP
00
ENDCHAR
STARTCHAR ydieresis
ENCODING 255
SWIDTH 423 0
DWIDTH 8 0
BBX 1 1 0 0
BITMAP
00
ENDCHAR
STARTCHAR dotlessi
ENCODING 305
SWIDTH 250 0
DWIDTH 5 0
BBX 1 1 0 0
BITMAP
00
ENDCHAR
STARTCHAR circumflex
ENCODING 710
SWIDTH 500 0
DWIDTH 10 0
BBX 5 3 2 11
BITMAP
F0
D8
98
ENDCHAR
STARTCHAR caron
ENCODING 711
SWIDTH 500 0
DWIDTH 10 0
BBX 1 1 0 0
BITMAP
00
ENDCHAR
STARTCHAR uni02C9
ENCODING 713
SWIDTH 500 0
DWIDTH 10 0
BBX 1 1 0 0
BITMAP
00
ENDCHAR
STARTCHAR breve
ENCODING 728
SWIDTH 500 0
DWIDTH 10 0
BBX 1 1 0 0
BITMAP
00
ENDCHAR
STARTCHAR dotaccent
ENCODING 729
SWIDTH 500 0
DWIDTH 10 0
BBX 1 1 0 0
BITMAP
00
ENDCHAR
STARTCHAR ring
ENCODING 730
SWIDTH 500 0
DWIDTH 10 0
BBX 1 2 4 11
BITMAP
80
80
ENDCHAR
STARTCHAR ogonek
ENCODING 731
SWIDTH 500 0
DWIDTH 10 0
BBX 1 1 0 0
BITMAP
00
ENDCHAR
STARTCHAR tilde
ENCODING 732
SWIDTH 500 0
DWIDTH 10 0
BBX 7 3 1 11
BITMAP
F2
9E
84
ENDCHAR
STARTCHAR hungarumlaut
ENCODING 733
SWIDTH 500 0
DWIDTH 10 0
BBX 1 1 0 0
BITMAP
00
ENDCHAR
STARTCHAR semicolon.dup3
ENCODING 894
SWIDTH 271 0
DWIDTH 5 0
BBX 2 13 0 -2
BITMAP
C0
00
00
00
00
00
00
00
00
00
C0
80
80
ENDCHAR
STARTCHAR endash
ENCODING 8211
SWIDTH 315 0
DWIDTH 6 0
BBX 6 2 0 0
BITMAP
78
FC
ENDCHAR
STARTCHAR emdash
ENCODING 8212
SWIDTH 315 0
DWIDTH 6 0
BBX 6 2 0 0
BITMAP
78
FC
ENDCHAR
STARTCHAR quoteleft
ENCODING 8216
SWIDTH 271 0
DWIDTH 5 0
BBX 1 1 0 0
BITMAP
00
ENDCHAR
STARTCHAR quoteright
ENCODING 8217
SWIDTH 271 0
DWIDTH 5 0
BBX 1 1 0 0
BITMAP
00
ENDCHAR
STARTCHAR quotesinglbase
ENCODING 8218
SWIDTH 271 0
DWIDTH 5 0
BBX 1 1 0 0
BITMAP
00
ENDCHAR
STARTCHAR quotedblleft
ENCODING 8220
SWIDTH 198 0
DWIDTH 4 0
BBX 3 2 0 17
BITMAP
A0
A0
ENDCHAR
STARTCHAR quotedblright
ENCODING 8221
SWIDTH 198 0
DWIDTH 4 0
BBX 3 3 0 17
BITMAP
A0
A0
A0
ENDCHAR
STARTCHAR quotedblbase
ENCODING 8222
SWIDTH 444 0
DWIDTH 8 0
BBX 1 1 0 0
BITMAP
00
ENDCHAR
STARTCHAR dagger
ENCODING 8224
SWIDTH 495 0
DWIDTH 9 0
BBX 1 1 0 0
BITMAP
00
ENDCHAR
STARTCHAR daggerdbl
ENCODING 8225
SWIDTH 495 0
DWIDTH 9 0
BBX 1 1 0 0
BITMAP
00
ENDCHAR
STARTCHAR bullet
ENCODING 8226
SWIDTH 500 0
DWIDTH 10 0
BBX 1 1 0 0
BITMAP
00
ENDCHAR
STARTCHAR ellipsis
ENCODING 8230
SWIDTH 1000 0
DWIDTH 19 0
BBX 1 1 0 0
BITMAP
00
ENDCHAR
STARTCHAR guilsinglleft
ENCODING 8249
SWIDTH 308 0
DWIDTH 6 0
BBX 1 1 0 0
BITMAP
00
ENDCHAR
STARTCHAR guilsinglright
ENCODING 8250
SWIDTH 308 0
DWIDTH 6 0
BBX 1 1 0 0
BITMAP
00
ENDCHAR
STARTCHAR fraction
ENCODING 8260
SWIDTH 166 0
DWIDTH 3 0
BBX 1 1 0 0
BITMAP
00
ENDCHAR
STARTCHAR franc
ENCODING 8355
SWIDTH 495 0
DWIDTH 9 0
BBX 1 1 0 0
BITMAP
00
ENDCHAR
STARTCHAR lira
ENCODING 8356
SWIDTH 495 0
DWIDTH 9 0
BBX 1 1 0 0
BITMAP
00
ENDCHAR
STARTCHAR peseta
ENCODING 8359
SWIDTH 990 0
DWIDTH 19 0
BBX 1 1 0 0
BITMAP
00
ENDCHAR
STARTCHAR Euro
ENCODING 8364
SWIDTH 495 0
DWIDTH 9 0
BBX 1 1 0 0
BITMAP
00
ENDCHAR
STARTCHAR afii61352
ENCODING 8470
SWIDTH 1108 0
DWIDTH 21 0
BBX 1 1 0 0
BITMAP
00
ENDCHAR
STARTCHAR trademark
ENCODING 8482
SWIDTH 730 0
DWIDTH 14 0
BBX 1 1 0 0
BITMAP
00
ENDCHAR
STARTCHAR partialdiff
ENCODING 8706
SWIDTH 495 0
DWIDTH 9 0
BBX 1 1 0 0
BITMAP
00
ENDCHAR
STARTCHAR Delta
ENCODING 8710
SWIDTH 527 0
DWIDTH 10 0
BBX 1 1 0 0
BITMAP
00
ENDCHAR
STARTCHAR product
ENCODING 8719
SWIDTH 739 0
DWIDTH 14 0
BBX 1 1 0 0
BITMAP
00
ENDCHAR
STARTCHAR summation
ENCODING 8721
SWIDTH 588 0
DWIDTH 11 0
BBX 1 1 0 0
BITMAP
00
ENDCHAR
STARTCHAR minus
ENCODING 8722
SWIDTH 320 0
DWIDTH 6 0
BBX 6 1 0 8
BITMAP
FC
ENDCHAR
STARTCHAR fraction.dup4
ENCODING 8725
SWIDTH 166 0
DWIDTH 3 0
BBX 1 1 0 0
BITMAP
00
ENDCHAR
STARTCHAR periodcentered.dup5
ENCODING 8729
SWIDTH 248 0
DWIDTH 5 0
BBX 1 1 0 0
BITMAP
00
ENDCHAR
STARTCHAR radical
ENCODING 8730
SWIDTH 495 0
DWIDTH 9 0
BBX 1 1 0 0
BITMAP
00
ENDCHAR
STARTCHAR infinity
ENCODING 8734
SWIDTH 495 0
DWIDTH 9 0
BBX 1 1 0 0
BITMAP
00
ENDCHAR
STARTCHAR integral
ENCODING 8747
SWIDTH 324 0
DWIDTH 6 0
BBX 1 1 0 0
BITMAP
00
ENDCHAR
STARTCHAR approxequal
ENCODING 8776
SWIDTH 495 0
DWIDTH 9 0
BBX 1 1 0 0
BITMAP
00
ENDCHAR
STARTCHAR lessequal
ENCODING 8804
SWIDTH 495 0
DWIDTH 9 0
BBX 1 1 0 0
BITMAP
00
ENDCHAR
STARTCHAR greaterequal
ENCODING 8805
SWIDTH 495 0
DWIDTH 9 0
BBX 1 1 0 0
BITMAP
00
ENDCHAR
STARTCHAR uniF001
ENCODING 61441
SWIDTH 523 0
DWIDTH 10 0
BBX 1 1 0 0
BITMAP
00
ENDCHAR
STARTCHAR uniF002
ENCODING 61442
SWIDTH 527 0
DWIDTH 10 0
BBX 1 1 0 0
BITMAP
00
ENDCHAR
STARTCHAR uniF001.dup6
ENCODING 64257
SWIDTH 523 0
DWIDTH 10 0
BBX 1 1 0 0
BITMAP
00
ENDCHAR
STARTCHAR uniF002.dup7
ENCODING 64258
SWIDTH 527 0
DWIDTH 10 0
BBX 1 1 0 0
BITMAP
00
ENDCHAR
STARTCHAR .notdef
ENCODING -1
SWIDTH 500 0
DWIDTH 10 0
BBX 5 13 4 0
BITMAP
08
08
48
48
48
08
88
08
08
88
88
08
08
ENDCHAR
STARTCHAR .null
ENCODING -1
SWIDTH 0 0
DWIDTH 0 0
BBX 1 1 0 0
BITMAP
00
ENDCHAR
STARTCHAR nonmarkingreturn
ENCODING -1
SWIDTH 248 0
DWIDTH 5 0
BBX 1 1 0 0
BITMAP
00
ENDCHAR
ENDFONT
